# xmcd
#
# Track frame offsets: 
#        150
#        17046
#        33707
#        53384
#        74683
#        90939
#        105912
#        125062
#        146037
#        163061
#
# Disc length: 2447 seconds
#
# Revision: 11
# Processed by: cddbd v1.5.2PL0 Copyright (c) Steve Scherf et al.
# Submitted via: ExactAudioCopy v1.3
#
DISCID=83098d0a
DTITLE=Simply Red - Live in Cuba (Ireland On Sunday)  CD1
DYEAR=2006
DGENRE=Pop
TTITLE0=Something got me started
TTITLE1=If you don't know me by now
TTITLE2=Stars
TTITLE3=So beautiful
TTITLE4=Sunrise
TTITLE5=Smile
TTITLE6=Love fire
TTITLE7=The right thing
TTITLE8=Home
TTITLE9=It's only love
EXTD=
EXTT0=
EXTT1=
EXTT2=
EXTT3=
EXTT4=
EXTT5=
EXTT6=
EXTT7=
EXTT8=
EXTT9=
PLAYORDER=
